P3
# Created by IrfanView
64 64
255
255 255 255 255 255 255 255 255 255 255 255 255 255 255 255 
255 255 255 255 255 255 255 255 255 255 255 255 255 255 255 
255 255 255 255 255 255 255 255 255 255 255 255 255 255 255 
255 255 255 255 255 255 255 255 255 255 255 255 255 255 255 
255 255 255 255 255 255 255 255 255 255 255 255 255 255 255 
255 255 255 255 255 255 255 255 255 255 255 255 255 255 255 
255 255 255 255 255 255 255 255 255 255 255 255 255 255 255 
255 255 255 255 255 255 255 255 255 255 255 255 255 255 255 
255 255 255 255 255 255 255 255 255 255 255 255 255 255 255 
255 255 255 255 255 255 255 255 255 255 255 255 255 255 255 
255 255 255 255 255 255 255 255 255 255 255 255 255 255 255 
255 255 255 255 255 255 255 255 255 255 255 255 255 255 255 
255 255 255 255 255 255 255 255 255 255 255 255 255 255 255 
255 255 255 255 255 255 255 255 255 255 255 255 255 255 255 
255 255 255 255 255 255 255 255 255 255 255 255 255 255 255 
255 255 255 255 255 255 255 255 255 255 255 255 255 255 255 
255 255 255 255 255 255 255 255 255 255 255 255 255 255 255 
255 255 255 255 255 255 255 255 255 255 255 255 255 255 255 
255 255 255 255 255 255 255 255 255 255 255 255 255 255 255 
255 255 255 255 255 255 255 255 255 255 255 255 255 255 255 
255 255 255 255 255 255 255 255 255 255 255 255 255 255 255 
255 255 255 255 255 255 255 255 255 255 255 255 255 255 255 
255 255 255 255 255 255 255 255 255 255 255 255 255 255 255 
255 255 255 255 255 255 255 255 255 255 255 255 255 255 255 
255 255 255 255 255 255 255 255 255 255 255 255 255 255 255 
255 255 255 255 255 255 255 255 255 255 255 255 255 255 255 
255 255 255 255 255 255 255 255 255 255 255 255 255 255 255 
255 255 255 255 255 255 255 255 255 255 255 255 255 255 255 
255 255 255 255 255 255 255 255 255 255 255 255 255 255 255 
255 255 255 255 255 255 255 255 255 255 255 255 255 255 255 
255 255 255 255 255 255 255 255 255 255 255 255 255 255 255 
255 255 255 255 255 255 255 255 255 255 255 255 255 255 255 
255 255 255 255 255 255 255 255 255 255 255 255 255 255 255 
255 255 255 255 255 255 255 255 255 255 255 255 255 255 255 
255 255 255 255 255 255 255 255 255 255 255 255 255 255 255 
255 255 255 255 255 255 255 255 255 255 255 255 255 255 255 
255 255 255 255 255 255 255 255 255 255 255 255 255 255 255 
255 255 255 255 255 255 255 255 255 255 255 255 255 255 255 
255 255 255 255 255 255 255 255 255 255 255 255 255 255 255 
255 255 255 255 255 255 255 255 255 255 255 255 255 255 255 
255 255 255 255 255 255 255 255 255 255 255 255 255 255 255 
255 255 255 255 255 255 255 255 255 255 255 255 255 255 255 
255 255 255 255 255 255 255 255 255 255 255 255 255 255 255 
255 255 255 255 255 255 255 255 255 255 255 255 255 255 255 
255 255 255 255 255 255 255 255 255 255 255 255 255 255 255 
255 255 255 255 255 255 255 255 255 255 255 255 255 255 255 
255 255 255 255 255 255 255 255 255 255 255 255 255 255 255 
255 255 255 255 255 255 255 255 255 255 255 255 255 255 255 
255 255 255 255 255 255 255 255 255 255 255 255 255 255 255 
255 255 255 255 255 255 255 255 255 255 255 255 255 255 255 
255 255 255 255 255 255 255 255 255 255 255 255 255 255 255 
255 255 255 255 255 255 255 255 255 255 255 255 255 255 255 
255 255 255 255 255 255 255 255 255 255 255 255 255 255 255 
255 255 255 255 255 255 255 255 255 255 255 255 255 255 255 
255 255 255 255 255 255 255 255 255 255 255 255 255 255 255 
255 255 255 255 255 255 255 255 255 255 255 255 255 255 255 
255 255 255 255 255 255 255 255 255 255 255 255 255 255 255 
255 255 255 255 255 255 255 255 255 255 255 255 255 255 255 
255 255 255 255 255 255 255 255 255 255 255 255 255 255 255 
255 255 255 255 255 255 255 255 255 255 255 255 255 255 255 
255 255 255 255 255 255 255 255 255 255 255 255 255 255 255 
255 255 255 255 255 255 255 255 255 255 255 255 255 255 255 
255 255 255 255 255 255 255 255 255 255 255 255 255 255 255 
255 255 255 255 255 255 255 255 255 255 255 255 255 255 255 
255 255 255 255 255 255 255 255 255 255 255 255 255 255 255 
255 255 255 255 255 255 255 255 255 255 255 255 255 255 255 
255 255 255 255 255 255 255 255 255 255 255 255 255 255 255 
255 255 255 255 255 255 255 255 255 255 255 255 255 255 255 
255 255 255 255 255 255 255 255 255 255 255 255 255 255 255 
255 255 255 255 255 255 255 255 255 255 255 255 255 255 255 
255 255 255 255 255 255 255 255 255 255 255 255 255 255 255 
255 255 255 255 255 255 255 255 255 255 255 255 255 255 255 
255 255 255 255 255 255 255 255 255 255 255 255 255 255 255 
255 255 255 255 255 255 255 255 255 255 255 255 255 255 255 
255 255 255 255 255 255 255 255 255 255 255 255 255 255 255 
255 255 255 255 255 255 255 255 255 255 255 255 255 255 255 
255 255 255 255 255 255 255 255 255 255 255 255 255 255 255 
255 255 255 255 255 255 255 255 255 255 255 255 255 255 255 
255 255 255 255 255 255 255 255 255 255 255 255 255 255 255 
255 255 255 255 255 255 255 255 255 255 255 255 255 255 255 
255 255 255 255 255 255 255 255 255 255 255 255 255 255 255 
255 255 255 255 255 255 255 255 255 255 255 255 255 255 255 
255 255 255 255 255 255 255 255 255 255 255 255 255 255 255 
255 255 255 255 255 255 255 255 255 255 255 255 255 255 255 
255 255 255 255 255 255 255 255 255 255 255 255 255 255 255 
255 255 255 255 255 255 255 255 255 255 255 255 255 255 255 
255 255 255 255 255 255 255 255 255 255 255 255 255 255 255 
255 255 255 221 183 189 151 32 50 136 0 21 151 32 50 
210 159 167 255 255 255 255 255 255 255 255 255 255 255 255 
255 255 255 255 255 255 255 255 255 255 255 255 255 255 255 
255 255 255 255 255 255 255 255 255 255 255 255 255 255 255 
255 255 255 255 255 255 255 255 255 255 255 255 255 255 255 
255 255 255 255 255 255 255 255 255 255 255 255 255 255 255 
255 255 255 255 255 255 255 255 255 255 255 255 255 255 255 
255 255 255 255 255 255 255 255 255 255 255 255 255 255 255 
255 255 255 255 255 255 255 255 255 255 255 255 255 255 255 
255 255 255 255 255 255 255 255 255 255 255 255 255 255 255 
255 255 255 255 255 255 255 255 255 255 255 255 255 255 255 
255 255 255 255 255 255 255 255 255 255 255 255 255 255 255 
255 255 255 255 255 255 255 255 255 255 255 255 255 255 255 
147 24 43 136 0 21 136 0 21 136 0 21 140 8 28 
210 159 167 255 255 255 255 255 255 255 255 255 255 255 255 
255 255 255 255 255 255 255 255 255 255 255 255 255 255 255 
255 255 255 255 255 255 255 255 255 255 255 255 255 255 255 
255 255 255 255 255 255 255 255 255 255 255 255 255 255 255 
255 255 255 255 255 255 255 255 255 255 255 255 255 255 255 
255 255 255 255 255 255 255 255 255 255 255 255 255 255 255 
255 255 255 255 255 255 255 255 255 255 255 255 255 255 255 
255 255 255 255 255 255 255 255 255 255 255 255 255 255 255 
255 255 255 255 255 255 255 255 255 255 255 255 255 255 255 
255 255 255 255 255 255 255 255 255 255 255 255 255 255 255 
255 255 255 255 255 255 255 255 255 255 255 255 255 255 255 
255 255 255 255 255 255 255 255 255 206 151 160 136 0 21 
136 0 21 136 0 21 136 0 21 136 0 21 140 8 28 
255 255 255 255 255 255 255 255 255 255 255 255 255 255 255 
255 255 255 255 255 255 255 255 255 255 255 255 255 255 255 
255 255 255 255 255 255 255 255 255 255 255 255 255 255 255 
255 255 255 255 255 255 255 255 255 255 255 255 255 255 255 
255 255 255 255 255 255 255 255 255 255 255 255 255 255 255 
255 255 255 255 255 255 255 255 255 255 255 255 255 255 255 
255 255 255 255 255 255 255 255 255 255 255 255 255 255 255 
255 255 255 255 255 255 255 255 255 255 255 255 255 255 255 
255 255 255 255 255 255 255 255 255 255 255 255 255 255 255 
255 255 255 255 255 255 255 255 255 255 255 255 255 255 255 
255 255 255 255 255 255 255 255 255 255 255 255 255 255 255 
255 255 255 255 255 255 147 24 43 136 0 21 136 0 21 
155 40 58 136 0 21 136 0 21 136 0 21 255 255 255 
255 255 255 255 255 255 255 255 255 255 255 255 255 255 255 
255 255 255 255 255 255 255 255 255 255 255 255 255 255 255 
255 255 255 255 255 255 255 255 255 255 255 255 255 255 255 
255 255 255 255 255 255 255 255 255 255 255 255 255 255 255 
255 255 255 255 255 255 255 255 255 255 255 255 255 255 255 
255 255 255 255 255 255 255 255 255 255 255 255 255 255 255 
255 255 255 255 255 255 255 255 255 255 255 255 255 255 255 
255 255 255 255 255 255 255 255 255 255 255 255 255 255 255 
255 255 255 255 255 255 255 255 255 255 255 255 255 255 255 
255 255 255 255 255 255 255 255 255 255 255 255 255 255 255 
255 255 255 255 255 255 255 255 255 255 255 255 255 255 255 
255 255 255 136 0 21 136 0 21 136 0 21 251 247 248 
136 0 21 136 0 21 136 0 21 255 255 255 255 255 255 
255 255 255 255 255 255 255 255 255 255 255 255 255 255 255 
255 255 255 255 255 255 255 255 255 255 255 255 255 255 255 
255 255 255 255 255 255 255 255 255 255 255 255 255 255 255 
255 255 255 255 255 255 255 255 255 255 255 255 255 255 255 
255 255 255 255 255 255 255 255 255 255 255 255 255 255 255 
255 255 255 255 255 255 255 255 255 255 255 255 255 255 255 
255 255 255 255 255 255 255 255 255 255 255 255 255 255 255 
255 255 255 255 255 255 255 255 255 255 255 255 255 255 255 
255 255 255 255 255 255 255 255 255 255 255 255 255 255 255 
255 255 255 255 255 255 255 255 255 255 255 255 255 255 255 
255 255 255 255 255 255 255 255 255 255 255 255 255 255 255 
136 0 21 136 0 21 136 0 21 255 255 255 136 0 21 
136 0 21 136 0 21 255 255 255 255 255 255 255 255 255 
255 255 255 255 255 255 255 255 255 255 255 255 255 255 255 
255 255 255 255 255 255 255 255 255 255 255 255 255 255 255 
210 159 167 151 32 50 136 0 21 136 0 21 136 0 21 
136 0 21 136 0 21 136 0 21 136 0 21 151 32 50 
210 159 167 255 255 255 255 255 255 255 255 255 255 255 255 
255 255 255 255 255 255 255 255 255 255 255 255 255 255 255 
255 255 255 255 255 255 255 255 255 255 255 255 255 255 255 
255 255 255 255 255 255 255 255 255 255 255 255 255 255 255 
255 255 255 255 255 255 255 255 255 255 255 255 255 255 255 
255 255 255 255 255 255 255 255 255 255 255 255 255 255 255 
255 255 255 255 255 255 255 255 255 255 255 255 136 0 21 
136 0 21 136 0 21 255 255 255 140 8 28 136 0 21 
136 0 21 199 135 145 255 255 255 255 255 255 255 255 255 
255 255 255 255 255 255 255 255 255 255 255 255 255 255 255 
255 255 255 255 255 255 221 183 189 151 32 50 136 0 21 
136 0 21 136 0 21 136 0 21 136 0 21 136 0 21 
136 0 21 136 0 21 136 0 21 136 0 21 140 8 28 
210 159 167 255 255 255 255 255 255 255 255 255 255 255 255 
255 255 255 255 255 255 255 255 255 255 255 255 255 255 255 
255 255 255 255 255 255 255 255 255 255 255 255 255 255 255 
255 255 255 255 255 255 255 255 255 255 255 255 255 255 255 
255 255 255 255 255 255 255 255 255 255 255 255 255 255 255 
255 255 255 255 255 255 255 255 255 255 255 255 255 255 255 
255 255 255 255 255 255 255 255 255 136 0 21 136 0 21 
136 0 21 255 255 255 189 112 124 136 0 21 136 0 21 
140 8 28 255 255 255 255 255 255 255 255 255 255 255 255 
255 255 255 255 255 255 255 255 255 255 255 255 255 255 255 
255 255 255 147 24 43 136 0 21 136 0 21 136 0 21 
136 0 21 136 0 21 136 0 21 136 0 21 136 0 21 
136 0 21 136 0 21 136 0 21 136 0 21 140 8 28 
210 159 167 255 255 255 255 255 255 255 255 255 255 255 255 
255 255 255 255 255 255 255 255 255 255 255 255 255 255 255 
255 255 255 255 255 255 255 255 255 255 255 255 255 255 255 
255 255 255 255 255 255 255 255 255 255 255 255 255 255 255 
255 255 255 255 255 255 255 255 255 255 255 255 255 255 255 
255 255 255 255 255 255 255 255 255 255 255 255 255 255 255 
255 255 255 255 255 255 136 0 21 136 0 21 136 0 21 
255 255 255 251 247 248 136 0 21 136 0 21 136 0 21 
255 255 255 255 255 255 255 255 255 255 255 255 255 255 255 
255 255 255 255 255 255 255 255 255 255 255 255 255 255 255 
136 0 21 136 0 21 136 0 21 137 3 24 251 247 248 
255 255 255 255 255 255 255 255 255 255 255 255 255 255 255 
199 135 145 136 0 21 136 0 21 136 0 21 140 8 28 
255 255 255 255 255 255 255 255 255 255 255 255 255 255 255 
255 255 255 255 255 255 255 255 255 255 255 255 255 255 255 
255 255 255 255 255 255 255 255 255 255 255 255 255 255 255 
255 255 255 255 255 255 255 255 255 255 255 255 255 255 255 
255 255 255 255 255 255 255 255 255 255 255 255 255 255 255 
255 255 255 255 255 255 255 255 255 255 255 255 255 255 255 
255 255 255 136 0 21 136 0 21 136 0 21 255 255 255 
255 255 255 136 0 21 136 0 21 136 0 21 255 255 255 
255 255 255 255 255 255 255 255 255 255 255 255 255 255 255 
255 255 255 255 255 255 255 255 255 255 255 255 136 0 21 
136 0 21 136 0 21 136 0 21 255 255 255 255 255 255 
255 255 255 255 255 255 255 255 255 255 255 255 255 255 255 
199 135 145 136 0 21 136 0 21 136 0 21 255 255 255 
255 255 255 255 255 255 255 255 255 255 255 255 255 255 255 
255 255 255 255 255 255 255 255 255 255 255 255 255 255 255 
255 255 255 255 255 255 255 255 255 255 255 255 255 255 255 
255 255 255 255 255 255 255 255 255 255 255 255 255 255 255 
255 255 255 255 255 255 255 255 255 255 255 255 255 255 255 
255 255 255 255 255 255 255 255 255 255 255 255 255 255 255 
136 0 21 136 0 21 136 0 21 255 255 255 255 255 255 
136 0 21 136 0 21 136 0 21 210 159 167 255 255 255 
255 255 255 255 255 255 255 255 255 255 255 255 255 255 255 
255 255 255 255 255 255 255 255 255 136 0 21 136 0 21 
136 0 21 136 0 21 255 255 255 255 255 255 255 255 255 
255 255 255 255 255 255 255 255 255 255 255 255 255 255 255 
136 0 21 136 0 21 136 0 21 255 255 255 255 255 255 
255 255 255 255 255 255 255 255 255 255 255 255 255 255 255 
255 255 255 255 255 255 255 255 255 255 255 255 255 255 255 
255 255 255 255 255 255 255 255 255 255 255 255 255 255 255 
255 255 255 255 255 255 255 255 255 255 255 255 255 255 255 
255 255 255 255 255 255 255 255 255 255 255 255 255 255 255 
255 255 255 255 255 255 255 255 255 255 255 255 136 0 21 
136 0 21 136 0 21 255 255 255 255 255 255 140 8 28 
136 0 21 136 0 21 140 8 28 255 255 255 255 255 255 
255 255 255 255 255 255 255 255 255 255 255 255 255 255 255 
255 255 255 255 255 255 136 0 21 136 0 21 136 0 21 
136 0 21 255 255 255 255 255 255 255 255 255 255 255 255 
255 255 255 255 255 255 255 255 255 255 255 255 136 0 21 
136 0 21 136 0 21 255 255 255 255 255 255 255 255 255 
255 255 255 255 255 255 255 255 255 255 255 255 255 255 255 
255 255 255 255 255 255 255 255 255 255 255 255 255 255 255 
255 255 255 255 255 255 255 255 255 255 255 255 255 255 255 
255 255 255 255 255 255 255 255 255 255 255 255 255 255 255 
255 255 255 255 255 255 255 255 255 255 255 255 255 255 255 
255 255 255 255 255 255 255 255 255 136 0 21 136 0 21 
136 0 21 255 255 255 255 255 255 199 135 145 136 0 21 
136 0 21 136 0 21 255 255 255 255 255 255 255 255 255 
255 255 255 255 255 255 255 255 255 255 255 255 255 255 255 
255 255 255 136 0 21 136 0 21 136 0 21 136 0 21 
255 255 255 255 255 255 255 255 255 255 255 255 255 255 255 
255 255 255 255 255 255 255 255 255 136 0 21 136 0 21 
136 0 21 255 255 255 255 255 255 255 255 255 255 255 255 
255 255 255 255 255 255 255 255 255 255 255 255 255 255 255 
255 255 255 255 255 255 255 255 255 255 255 255 255 255 255 
255 255 255 255 255 255 255 255 255 255 255 255 255 255 255 
255 255 255 255 255 255 255 255 255 255 255 255 255 255 255 
255 255 255 255 255 255 255 255 255 255 255 255 255 255 255 
255 255 255 255 255 255 136 0 21 136 0 21 136 0 21 
255 255 255 255 255 255 255 255 255 136 0 21 136 0 21 
136 0 21 255 255 255 255 255 255 255 255 255 255 255 255 
255 255 255 255 255 255 255 255 255 255 255 255 255 255 255 
140 8 28 136 0 21 136 0 21 136 0 21 255 255 255 
255 255 255 255 255 255 255 255 255 255 255 255 255 255 255 
255 255 255 255 255 255 136 0 21 136 0 21 136 0 21 
255 255 255 255 255 255 255 255 255 255 255 255 255 255 255 
255 255 255 255 255 255 255 255 255 255 255 255 255 255 255 
255 255 255 255 255 255 255 255 255 255 255 255 255 255 255 
255 255 255 255 255 255 255 255 255 255 255 255 255 255 255 
255 255 255 255 255 255 255 255 255 255 255 255 255 255 255 
255 255 255 255 255 255 255 255 255 255 255 255 255 255 255 
255 255 255 136 0 21 136 0 21 136 0 21 255 255 255 
255 255 255 255 255 255 136 0 21 136 0 21 136 0 21 
255 255 255 255 255 255 255 255 255 255 255 255 255 255 255 
255 255 255 255 255 255 255 255 255 255 255 255 199 135 145 
136 0 21 136 0 21 136 0 21 255 255 255 255 255 255 
255 255 255 255 255 255 255 255 255 255 255 255 255 255 255 
210 159 167 136 0 21 136 0 21 136 0 21 255 255 255 
255 255 255 255 255 255 255 255 255 255 255 255 255 255 255 
255 255 255 255 255 255 255 255 255 255 255 255 255 255 255 
255 255 255 255 255 255 255 255 255 255 255 255 255 255 255 
255 255 255 255 255 255 255 255 255 255 255 255 255 255 255 
255 255 255 255 255 255 255 255 255 255 255 255 255 255 255 
255 255 255 255 255 255 255 255 255 255 255 255 255 255 255 
136 0 21 136 0 21 136 0 21 255 255 255 255 255 255 
255 255 255 136 0 21 136 0 21 136 0 21 255 255 255 
255 255 255 255 255 255 255 255 255 255 255 255 255 255 255 
255 255 255 255 255 255 255 255 255 255 255 255 136 0 21 
136 0 21 136 0 21 255 255 255 255 255 255 255 255 255 
255 255 255 221 183 189 151 32 50 136 0 21 136 0 21 
136 0 21 136 0 21 136 0 21 255 255 255 255 255 255 
255 255 255 255 255 255 255 255 255 255 255 255 255 255 255 
255 255 255 255 255 255 255 255 255 255 255 255 255 255 255 
255 255 255 255 255 255 255 255 255 255 255 255 255 255 255 
255 255 255 255 255 255 255 255 255 255 255 255 255 255 255 
255 255 255 255 255 255 255 255 255 255 255 255 255 255 255 
255 255 255 255 255 255 255 255 255 255 255 255 136 0 21 
136 0 21 136 0 21 255 255 255 255 255 255 255 255 255 
136 0 21 136 0 21 136 0 21 255 255 255 255 255 255 
255 255 255 255 255 255 255 255 255 255 255 255 255 255 255 
255 255 255 255 255 255 255 255 255 136 0 21 136 0 21 
136 0 21 255 255 255 255 255 255 221 183 189 151 32 50 
136 0 21 136 0 21 136 0 21 136 0 21 136 0 21 
136 0 21 185 104 116 255 255 255 255 255 255 255 255 255 
255 255 255 255 255 255 255 255 255 255 255 255 255 255 255 
255 255 255 255 255 255 255 255 255 255 255 255 255 255 255 
255 255 255 255 255 255 255 255 255 255 255 255 255 255 255 
255 255 255 255 255 255 255 255 255 255 255 255 255 255 255 
255 255 255 255 255 255 255 255 255 255 255 255 255 255 255 
255 255 255 255 255 255 255 255 255 136 0 21 136 0 21 
136 0 21 255 255 255 255 255 255 255 255 255 136 0 21 
136 0 21 136 0 21 255 255 255 255 255 255 255 255 255 
255 255 255 255 255 255 255 255 255 255 255 255 255 255 255 
255 255 255 255 255 255 136 0 21 136 0 21 136 0 21 
221 183 189 151 32 50 136 0 21 136 0 21 136 0 21 
136 0 21 136 0 21 136 0 21 177 88 102 251 247 248 
255 255 255 255 255 255 255 255 255 255 255 255 255 255 255 
255 255 255 255 255 255 255 255 255 255 255 255 255 255 255 
255 255 255 255 255 255 255 255 255 255 255 255 255 255 255 
255 255 255 221 183 189 166 64 80 210 159 167 255 255 255 
255 255 255 255 255 255 255 255 255 255 255 255 255 255 255 
255 255 255 255 255 255 255 255 255 255 255 255 255 255 255 
255 255 255 255 255 255 136 0 21 136 0 21 136 0 21 
255 255 255 255 255 255 255 255 255 136 0 21 136 0 21 
136 0 21 255 255 255 255 255 255 255 255 255 255 255 255 
255 255 255 255 255 255 255 255 255 255 255 255 255 255 255 
255 255 255 136 0 21 136 0 21 136 0 21 147 24 43 
136 0 21 136 0 21 136 0 21 136 0 21 136 0 21 
185 104 116 255 255 255 255 255 255 221 183 189 151 32 50 
136 0 21 151 32 50 210 159 167 255 255 255 255 255 255 
221 183 189 166 64 80 210 159 167 255 255 255 255 255 255 
255 255 255 255 255 255 255 255 255 255 255 255 255 255 255 
147 24 43 136 0 21 140 8 28 255 255 255 255 255 255 
255 255 255 255 255 255 255 255 255 255 255 255 221 183 189 
166 64 80 210 159 167 255 255 255 255 255 255 255 255 255 
255 255 255 136 0 21 136 0 21 136 0 21 255 255 255 
255 255 255 255 255 255 136 0 21 136 0 21 136 0 21 
255 255 255 255 255 255 255 255 255 255 255 255 255 255 255 
255 255 255 255 255 255 255 255 255 255 255 255 255 255 255 
136 0 21 136 0 21 136 0 21 136 0 21 136 0 21 
136 0 21 136 0 21 185 104 116 255 255 255 255 255 255 
255 255 255 255 255 255 147 24 43 136 0 21 136 0 21 
136 0 21 140 8 28 255 255 255 255 255 255 147 24 43 
136 0 21 140 8 28 255 255 255 255 255 255 255 255 255 
255 255 255 255 255 255 255 255 255 255 255 255 136 0 21 
136 0 21 136 0 21 255 255 255 255 255 255 255 255 255 
255 255 255 255 255 255 255 255 255 147 24 43 136 0 21 
140 8 28 255 255 255 255 255 255 255 255 255 255 255 255 
136 0 21 136 0 21 136 0 21 255 255 255 255 255 255 
255 255 255 136 0 21 136 0 21 136 0 21 255 255 255 
255 255 255 255 255 255 255 255 255 255 255 255 255 255 255 
255 255 255 255 255 255 255 255 255 255 255 255 136 0 21 
136 0 21 136 0 21 136 0 21 136 0 21 136 0 21 
255 255 255 255 255 255 255 255 255 255 255 255 255 255 255 
255 255 255 136 0 21 136 0 21 136 0 21 136 0 21 
185 104 116 255 255 255 255 255 255 136 0 21 136 0 21 
136 0 21 255 255 255 255 255 255 255 255 255 255 255 255 
255 255 255 255 255 255 255 255 255 136 0 21 136 0 21 
136 0 21 255 255 255 255 255 255 255 255 255 255 255 255 
255 255 255 221 183 189 136 0 21 136 0 21 136 0 21 
255 255 255 255 255 255 255 255 255 255 255 255 136 0 21 
136 0 21 136 0 21 255 255 255 255 255 255 255 255 255 
136 0 21 136 0 21 136 0 21 255 255 255 255 255 255 
255 255 255 255 255 255 255 255 255 255 255 255 255 255 255 
255 255 255 255 255 255 255 255 255 136 0 21 136 0 21 
136 0 21 136 0 21 136 0 21 136 0 21 210 159 167 
255 255 255 255 255 255 255 255 255 255 255 255 255 255 255 
136 0 21 136 0 21 136 0 21 255 255 255 255 255 255 
255 255 255 255 255 255 136 0 21 136 0 21 136 0 21 
255 255 255 255 255 255 255 255 255 255 255 255 255 255 255 
255 255 255 221 183 189 136 0 21 136 0 21 136 0 21 
255 255 255 255 255 255 255 255 255 255 255 255 255 255 255 
147 24 43 136 0 21 136 0 21 136 0 21 255 255 255 
255 255 255 255 255 255 255 255 255 136 0 21 136 0 21 
136 0 21 255 255 255 255 255 255 221 183 189 136 0 21 
136 0 21 136 0 21 255 255 255 255 255 255 255 255 255 
255 255 255 255 255 255 255 255 255 255 255 255 255 255 255 
255 255 255 255 255 255 136 0 21 136 0 21 136 0 21 
140 8 28 136 0 21 136 0 21 140 8 28 255 255 255 
255 255 255 255 255 255 255 255 255 255 255 255 136 0 21 
136 0 21 136 0 21 255 255 255 255 255 255 255 255 255 
255 255 255 136 0 21 136 0 21 136 0 21 210 159 167 
255 255 255 255 255 255 255 255 255 255 255 255 255 255 255 
147 24 43 136 0 21 136 0 21 136 0 21 255 255 255 
255 255 255 255 255 255 255 255 255 221 183 189 136 0 21 
136 0 21 136 0 21 136 0 21 255 255 255 255 255 255 
255 255 255 255 255 255 140 8 28 136 0 21 136 0 21 
199 135 145 255 255 255 147 24 43 136 0 21 136 0 21 
136 0 21 255 255 255 255 255 255 255 255 255 255 255 255 
255 255 255 255 255 255 255 255 255 255 255 255 255 255 255 
255 255 255 136 0 21 136 0 21 136 0 21 199 135 145 
136 0 21 136 0 21 136 0 21 255 255 255 255 255 255 
255 255 255 255 255 255 255 255 255 136 0 21 136 0 21 
136 0 21 255 255 255 255 255 255 255 255 255 255 255 255 
136 0 21 136 0 21 136 0 21 140 8 28 255 255 255 
255 255 255 255 255 255 255 255 255 255 255 255 136 0 21 
136 0 21 136 0 21 136 0 21 255 255 255 255 255 255 
255 255 255 255 255 255 147 24 43 136 0 21 136 0 21 
136 0 21 136 0 21 255 255 255 255 255 255 255 255 255 
255 255 255 189 112 124 136 0 21 136 0 21 140 8 28 
210 159 167 136 0 21 136 0 21 136 0 21 185 104 116 
255 255 255 255 255 255 255 255 255 255 255 255 255 255 255 
255 255 255 255 255 255 255 255 255 255 255 255 255 255 255 
136 0 21 136 0 21 136 0 21 255 255 255 136 0 21 
136 0 21 136 0 21 210 159 167 255 255 255 255 255 255 
255 255 255 255 255 255 136 0 21 136 0 21 136 0 21 
255 255 255 255 255 255 255 255 255 255 255 255 136 0 21 
136 0 21 136 0 21 136 0 21 210 159 167 255 255 255 
255 255 255 255 255 255 206 151 160 136 0 21 136 0 21 
136 0 21 136 0 21 255 255 255 255 255 255 255 255 255 
195 127 138 136 0 21 136 0 21 136 0 21 136 0 21 
136 0 21 255 255 255 255 255 255 255 255 255 255 255 255 
251 247 248 140 8 28 136 0 21 136 0 21 136 0 21 
136 0 21 136 0 21 136 0 21 255 255 255 255 255 255 
255 255 255 255 255 255 255 255 255 255 255 255 255 255 255 
255 255 255 255 255 255 255 255 255 255 255 255 136 0 21 
136 0 21 136 0 21 255 255 255 140 8 28 136 0 21 
136 0 21 140 8 28 255 255 255 255 255 255 255 255 255 
255 255 255 136 0 21 136 0 21 136 0 21 255 255 255 
255 255 255 255 255 255 255 255 255 136 0 21 136 0 21 
136 0 21 136 0 21 136 0 21 151 32 50 210 159 167 
244 231 233 140 8 28 136 0 21 136 0 21 136 0 21 
136 0 21 255 255 255 255 255 255 206 151 160 136 0 21 
136 0 21 136 0 21 136 0 21 136 0 21 136 0 21 
210 159 167 255 255 255 255 255 255 255 255 255 255 255 255 
199 135 145 136 0 21 136 0 21 136 0 21 136 0 21 
136 0 21 177 88 102 255 255 255 255 255 255 255 255 255 
255 255 255 255 255 255 255 255 255 255 255 255 255 255 255 
255 255 255 255 255 255 255 255 255 136 0 21 136 0 21 
136 0 21 255 255 255 199 135 145 136 0 21 136 0 21 
136 0 21 255 255 255 255 255 255 255 255 255 255 255 255 
136 0 21 136 0 21 136 0 21 210 159 167 255 255 255 
255 255 255 255 255 255 136 0 21 136 0 21 136 0 21 
136 0 21 136 0 21 136 0 21 136 0 21 136 0 21 
136 0 21 136 0 21 136 0 21 136 0 21 136 0 21 
255 255 255 244 231 233 140 8 28 136 0 21 136 0 21 
170 72 87 140 8 28 136 0 21 136 0 21 140 8 28 
255 255 255 255 255 255 255 255 255 255 255 255 255 255 255 
199 135 145 136 0 21 136 0 21 136 0 21 136 0 21 
251 247 248 255 255 255 255 255 255 255 255 255 255 255 255 
255 255 255 255 255 255 255 255 255 255 255 255 255 255 255 
255 255 255 255 255 255 136 0 21 136 0 21 136 0 21 
255 255 255 255 255 255 136 0 21 136 0 21 136 0 21 
255 255 255 255 255 255 255 255 255 255 255 255 140 8 28 
136 0 21 136 0 21 140 8 28 206 151 160 255 255 255 
221 183 189 136 0 21 136 0 21 136 0 21 136 0 21 
136 0 21 136 0 21 136 0 21 136 0 21 136 0 21 
136 0 21 136 0 21 136 0 21 136 0 21 195 127 138 
151 32 50 136 0 21 136 0 21 159 48 65 251 247 248 
199 135 145 136 0 21 136 0 21 136 0 21 255 255 255 
255 255 255 255 255 255 255 255 255 255 255 255 195 127 138 
136 0 21 136 0 21 136 0 21 140 8 28 255 255 255 
255 255 255 255 255 255 255 255 255 255 255 255 255 255 255 
255 255 255 255 255 255 255 255 255 255 255 255 255 255 255 
255 255 255 136 0 21 136 0 21 136 0 21 255 255 255 
255 255 255 136 0 21 136 0 21 136 0 21 255 255 255 
255 255 255 255 255 255 255 255 255 199 135 145 136 0 21 
136 0 21 136 0 21 136 0 21 136 0 21 136 0 21 
136 0 21 136 0 21 136 0 21 255 255 255 199 135 145 
136 0 21 136 0 21 136 0 21 136 0 21 170 72 87 
136 0 21 136 0 21 136 0 21 136 0 21 136 0 21 
136 0 21 136 0 21 218 175 182 255 255 255 255 255 255 
140 8 28 136 0 21 136 0 21 136 0 21 136 0 21 
136 0 21 136 0 21 136 0 21 136 0 21 136 0 21 
136 0 21 136 0 21 136 0 21 199 135 145 255 255 255 
255 255 255 255 255 255 255 255 255 255 255 255 255 255 255 
255 255 255 255 255 255 255 255 255 255 255 255 255 255 255 
140 8 28 136 0 21 136 0 21 255 255 255 255 255 255 
136 0 21 136 0 21 136 0 21 255 255 255 255 255 255 
255 255 255 255 255 255 255 255 255 199 135 145 136 0 21 
136 0 21 136 0 21 136 0 21 136 0 21 136 0 21 
136 0 21 185 104 116 255 255 255 255 255 255 255 255 255 
255 255 255 255 255 255 255 255 255 255 255 255 140 8 28 
136 0 21 136 0 21 136 0 21 136 0 21 136 0 21 
170 72 87 255 255 255 255 255 255 255 255 255 189 112 124 
136 0 21 136 0 21 136 0 21 136 0 21 136 0 21 
136 0 21 136 0 21 136 0 21 136 0 21 144 16 36 
136 0 21 136 0 21 140 8 28 255 255 255 255 255 255 
255 255 255 255 255 255 255 255 255 255 255 255 255 255 255 
255 255 255 255 255 255 255 255 255 255 255 255 199 135 145 
136 0 21 185 104 116 255 255 255 255 255 255 136 0 21 
136 0 21 136 0 21 255 255 255 255 255 255 255 255 255 
255 255 255 255 255 255 255 255 255 251 247 248 181 96 109 
136 0 21 136 0 21 136 0 21 136 0 21 185 104 116 
255 255 255 255 255 255 255 255 255 255 255 255 255 255 255 
255 255 255 255 255 255 255 255 255 199 135 145 136 0 21 
136 0 21 151 32 50 210 159 167 255 255 255 255 255 255 
255 255 255 255 255 255 255 255 255 251 247 248 181 96 109 
136 0 21 136 0 21 136 0 21 136 0 21 136 0 21 
136 0 21 136 0 21 177 88 102 248 239 240 140 8 28 
136 0 21 136 0 21 233 207 211 255 255 255 255 255 255 
255 255 255 255 255 255 255 255 255 255 255 255 255 255 255 
255 255 255 255 255 255 255 255 255 255 255 255 255 255 255 
255 255 255 255 255 255 255 255 255 136 0 21 136 0 21 
136 0 21 255 255 255 255 255 255 255 255 255 255 255 255 
255 255 255 255 255 255 255 255 255 255 255 255 255 255 255 
255 255 255 255 255 255 255 255 255 255 255 255 255 255 255 
255 255 255 255 255 255 255 255 255 255 255 255 255 255 255 
255 255 255 255 255 255 255 255 255 255 255 255 255 255 255 
255 255 255 255 255 255 255 255 255 255 255 255 255 255 255 
255 255 255 255 255 255 255 255 255 255 255 255 255 255 255 
255 255 255 255 255 255 255 255 255 255 255 255 255 255 255 
255 255 255 255 255 255 255 255 255 177 88 102 136 0 21 
136 0 21 151 32 50 210 159 167 255 255 255 255 255 255 
255 255 255 255 255 255 255 255 255 255 255 255 255 255 255 
255 255 255 255 255 255 255 255 255 255 255 255 255 255 255 
255 255 255 255 255 255 140 8 28 136 0 21 136 0 21 
255 255 255 255 255 255 255 255 255 255 255 255 255 255 255 
255 255 255 255 255 255 255 255 255 255 255 255 255 255 255 
255 255 255 255 255 255 255 255 255 255 255 255 255 255 255 
255 255 255 255 255 255 255 255 255 255 255 255 255 255 255 
255 255 255 255 255 255 255 255 255 255 255 255 255 255 255 
255 255 255 255 255 255 255 255 255 255 255 255 255 255 255 
255 255 255 255 255 255 255 255 255 255 255 255 255 255 255 
255 255 255 255 255 255 255 255 255 255 255 255 255 255 255 
255 255 255 255 255 255 233 207 211 136 0 21 136 0 21 
136 0 21 140 8 28 255 255 255 255 255 255 255 255 255 
255 255 255 255 255 255 255 255 255 255 255 255 255 255 255 
255 255 255 255 255 255 255 255 255 255 255 255 255 255 255 
255 255 255 199 135 145 136 0 21 185 104 116 255 255 255 
255 255 255 255 255 255 255 255 255 255 255 255 255 255 255 
255 255 255 255 255 255 255 255 255 255 255 255 255 255 255 
255 255 255 255 255 255 255 255 255 255 255 255 255 255 255 
255 255 255 255 255 255 255 255 255 255 255 255 255 255 255 
255 255 255 255 255 255 255 255 255 255 255 255 255 255 255 
255 255 255 255 255 255 255 255 255 255 255 255 255 255 255 
255 255 255 255 255 255 255 255 255 255 255 255 255 255 255 
255 255 255 255 255 255 255 255 255 255 255 255 255 255 255 
255 255 255 255 255 255 185 104 116 136 0 21 136 0 21 
136 0 21 195 127 138 255 255 255 255 255 255 255 255 255 
255 255 255 255 255 255 255 255 255 255 255 255 255 255 255 
255 255 255 255 255 255 255 255 255 255 255 255 255 255 255 
255 255 255 255 255 255 255 255 255 255 255 255 255 255 255 
255 255 255 255 255 255 255 255 255 255 255 255 255 255 255 
255 255 255 255 255 255 255 255 255 255 255 255 255 255 255 
255 255 255 255 255 255 255 255 255 255 255 255 255 255 255 
255 255 255 255 255 255 255 255 255 255 255 255 255 255 255 
255 255 255 255 255 255 255 255 255 255 255 255 255 255 255 
255 255 255 255 255 255 255 255 255 255 255 255 255 255 255 
255 255 255 255 255 255 255 255 255 255 255 255 255 255 255 
255 255 255 255 255 255 255 255 255 255 255 255 255 255 255 
255 255 255 255 255 255 189 112 124 136 0 21 136 0 21 
136 0 21 233 207 211 255 255 255 255 255 255 255 255 255 
255 255 255 255 255 255 255 255 255 255 255 255 255 255 255 
255 255 255 255 255 255 255 255 255 255 255 255 255 255 255 
255 255 255 255 255 255 255 255 255 255 255 255 255 255 255 
255 255 255 255 255 255 255 255 255 255 255 255 255 255 255 
255 255 255 255 255 255 255 255 255 255 255 255 255 255 255 
255 255 255 255 255 255 255 255 255 255 255 255 255 255 255 
255 255 255 255 255 255 255 255 255 255 255 255 255 255 255 
255 255 255 255 255 255 255 255 255 255 255 255 255 255 255 
255 255 255 255 255 255 255 255 255 255 255 255 255 255 255 
255 255 255 255 255 255 255 255 255 255 255 255 255 255 255 
255 255 255 255 255 255 255 255 255 255 255 255 255 255 255 
255 255 255 251 247 248 166 64 80 136 0 21 136 0 21 
174 80 94 255 255 255 255 255 255 255 255 255 255 255 255 
255 255 255 255 255 255 255 255 255 255 255 255 255 255 255 
255 255 255 255 255 255 255 255 255 255 255 255 255 255 255 
255 255 255 255 255 255 255 255 255 255 255 255 255 255 255 
255 255 255 255 255 255 255 255 255 255 255 255 255 255 255 
255 255 255 255 255 255 255 255 255 255 255 255 255 255 255 
255 255 255 255 255 255 255 255 255 255 255 255 255 255 255 
255 255 255 255 255 255 255 255 255 255 255 255 255 255 255 
255 255 255 255 255 255 255 255 255 255 255 255 255 255 255 
255 255 255 255 255 255 255 255 255 255 255 255 255 255 255 
255 255 255 255 255 255 255 255 255 255 255 255 255 255 255 
255 255 255 255 255 255 255 255 255 255 255 255 255 255 255 
255 255 255 233 207 211 136 0 21 136 0 21 136 0 21 
255 255 255 255 255 255 255 255 255 255 255 255 255 255 255 
255 255 255 255 255 255 255 255 255 255 255 255 255 255 255 
255 255 255 255 255 255 255 255 255 255 255 255 255 255 255 
255 255 255 255 255 255 255 255 255 255 255 255 255 255 255 
255 255 255 255 255 255 255 255 255 255 255 255 255 255 255 
255 255 255 255 255 255 255 255 255 255 255 255 255 255 255 
255 255 255 255 255 255 255 255 255 255 255 255 255 255 255 
255 255 255 255 255 255 255 255 255 255 255 255 255 255 255 
255 255 255 255 255 255 255 255 255 255 255 255 255 255 255 
255 255 255 255 255 255 255 255 255 255 255 255 255 255 255 
255 255 255 255 255 255 255 255 255 255 255 255 255 255 255 
255 255 255 255 255 255 255 255 255 255 255 255 255 255 255 
255 255 255 140 8 28 136 0 21 136 0 21 199 135 145 
255 255 255 255 255 255 255 255 255 255 255 255 255 255 255 
255 255 255 255 255 255 255 255 255 255 255 255 255 255 255 
255 255 255 255 255 255 255 255 255 255 255 255 255 255 255 
255 255 255 255 255 255 255 255 255 255 255 255 255 255 255 
255 255 255 255 255 255 255 255 255 255 255 255 255 255 255 
255 255 255 255 255 255 255 255 255 255 255 255 255 255 255 
255 255 255 255 255 255 255 255 255 255 255 255 255 255 255 
255 255 255 255 255 255 255 255 255 255 255 255 255 255 255 
255 255 255 255 255 255 255 255 255 255 255 255 255 255 255 
255 255 255 255 255 255 255 255 255 255 255 255 255 255 255 
255 255 255 255 255 255 255 255 255 255 255 255 255 255 255 
255 255 255 255 255 255 255 255 255 255 255 255 255 255 255 
189 112 124 136 0 21 136 0 21 140 8 28 255 255 255 
255 255 255 255 255 255 255 255 255 255 255 255 255 255 255 
255 255 255 255 255 255 255 255 255 255 255 255 255 255 255 
255 255 255 255 255 255 255 255 255 255 255 255 255 255 255 
255 255 255 255 255 255 255 255 255 255 255 255 255 255 255 
255 255 255 255 255 255 255 255 255 255 255 255 255 255 255 
255 255 255 255 255 255 255 255 255 255 255 255 255 255 255 
255 255 255 255 255 255 255 255 255 255 255 255 255 255 255 
255 255 255 255 255 255 255 255 255 255 255 255 255 255 255 
255 255 255 255 255 255 255 255 255 255 255 255 255 255 255 
255 255 255 255 255 255 255 255 255 255 255 255 255 255 255 
255 255 255 255 255 255 255 255 255 255 255 255 255 255 255 
255 255 255 255 255 255 255 255 255 252 252 254 243 240 246 
136 12 38 131 5 34 129 6 37 255 255 255 255 255 255 
255 255 255 255 255 255 255 255 255 255 255 255 255 255 255 
255 255 255 255 255 255 255 255 255 255 255 255 255 255 255 
255 255 255 255 255 255 255 255 255 255 255 255 255 255 255 
255 255 255 255 255 255 255 255 255 255 255 255 255 255 255 
255 255 255 255 255 255 255 255 255 255 255 255 255 255 255 
255 255 255 255 255 255 255 255 255 255 255 255 255 255 255 
255 255 255 255 255 255 255 255 255 255 255 255 255 255 255 
255 255 255 255 255 255 255 255 255 255 255 255 255 255 255 
255 255 255 255 255 255 255 255 255 255 255 255 255 255 255 
255 255 255 255 255 255 255 255 255 255 255 255 255 255 255 
255 255 255 255 255 255 255 255 255 255 255 255 254 254 255 
253 253 254 248 249 253 229 231 248 205 208 242 146 111 168 
102 34 106 100 36 112 255 255 255 255 255 255 255 255 255 
255 255 255 255 255 255 255 255 255 255 255 255 255 255 255 
255 255 255 255 255 255 255 255 255 255 255 255 255 255 255 
255 255 255 255 255 255 255 255 255 255 255 255 255 255 255 
255 255 255 255 255 255 255 255 255 255 255 255 255 255 255 
255 255 255 255 255 255 255 255 255 255 255 255 255 255 255 
255 255 255 255 255 255 255 255 255 255 255 255 255 255 255 
255 255 255 255 255 255 255 255 255 255 255 255 255 255 255 
255 255 255 255 255 255 255 255 255 255 255 255 255 255 255 
255 255 255 255 255 255 255 255 255 255 255 255 255 255 255 
255 255 255 255 255 255 255 255 255 255 255 255 255 255 255 
255 255 255 254 254 255 253 253 254 248 249 253 233 234 249 
203 205 241 156 161 229 132 138 222 119 126 219 81 54 159 
80 55 161 255 255 255 255 255 255 255 255 255 255 255 255 
255 255 255 255 255 255 255 255 255 255 255 255 255 255 255 
255 255 255 255 255 255 255 255 255 255 255 255 255 255 255 
255 255 255 255 255 255 255 255 255 255 255 255 255 255 255 
255 255 255 255 255 255 255 255 255 255 255 255 255 255 255 
255 255 255 255 255 255 255 255 255 255 255 255 255 255 255 
255 255 255 246 246 253 229 230 248 211 213 243 202 204 241 
200 203 240 198 200 240 196 198 239 196 198 239 196 198 239 
196 198 239 196 198 239 196 198 239 196 198 239 196 198 239 
196 198 239 196 198 239 196 198 239 196 198 239 196 198 239 
196 198 239 196 199 239 196 199 239 196 199 239 196 199 239 
195 198 239 191 194 238 174 178 234 158 162 229 139 144 224 
111 118 217 95 102 212 97 104 213 77 60 171 77 58 169 
255 255 255 255 255 255 255 255 255 255 255 255 255 255 255 
255 255 255 255 255 255 255 255 255 255 255 255 255 255 255 
255 255 255 255 255 255 255 255 255 255 255 255 255 255 255 
255 255 255 255 255 255 255 255 255 255 255 255 255 255 255 
255 255 255 255 255 255 255 255 255 255 255 255 248 249 253 
234 235 249 217 219 245 208 210 242 205 208 242 203 205 241 
185 188 236 164 168 231 143 148 225 128 134 221 125 132 221 
123 129 220 122 128 220 121 127 219 121 127 219 121 127 219 
120 127 219 120 127 219 120 127 219 119 126 219 119 126 219 
119 126 219 120 127 219 121 127 219 122 128 220 122 129 220 
124 130 220 124 130 220 125 132 221 126 132 221 125 132 221 
124 130 220 112 119 217 101 109 214 95 103 213 99 106 214 
104 111 215 105 112 215 92 85 191 78 56 165 255 255 255 
255 255 255 255 255 255 255 255 255 255 255 255 255 255 255 
255 255 255 255 255 255 255 255 255 255 255 255 255 255 255 
255 255 255 255 255 255 255 255 255 255 255 255 255 255 255 
255 255 255 255 255 255 255 255 255 250 250 254 244 245 252 
238 239 251 233 234 249 226 228 247 208 211 243 180 183 235 
155 160 228 136 142 223 134 139 223 132 137 222 111 118 217 
96 104 213 95 102 212 93 101 212 92 100 212 92 99 212 
91 99 211 91 99 211 91 99 211 91 99 211 90 98 211 
90 98 211 90 98 211 90 98 211 90 98 211 90 98 211 
92 99 212 92 100 212 93 101 212 95 102 212 95 103 213 
96 104 213 97 104 213 98 106 213 99 106 214 99 106 214 
100 107 214 101 109 214 103 110 215 104 111 215 104 111 215 
107 114 216 121 127 219 126 132 221 255 255 255 255 255 255 
255 255 255 255 255 255 255 255 255 255 255 255 255 255 255 
255 255 255 255 255 255 255 255 255 248 249 253 242 243 252 
235 236 250 229 231 248 223 224 246 217 218 245 210 212 243 
203 205 241 197 200 240 190 193 238 183 186 236 176 180 234 
169 173 232 160 165 230 134 139 223 113 119 217 104 111 215 
98 106 213 98 105 213 97 104 213 95 102 212 94 101 212 
98 106 213 107 114 216 108 115 216 107 114 216 106 113 215 
106 113 215 106 113 215 105 112 215 105 112 215 105 112 215 
104 111 215 104 111 215 104 111 215 104 111 215 104 111 215 
104 111 215 104 111 215 104 111 215 104 111 215 104 111 215 
104 111 215 104 111 215 104 111 215 104 111 215 105 112 215 
105 112 215 105 112 215 115 122 218 148 153 227 180 184 235 
198 200 240 201 203 241 255 255 255 255 255 255 255 255 255 
255 255 255 255 255 255 255 255 255 255 255 255 255 255 255 
255 255 255 254 254 255 241 241 251 227 228 248 214 216 244 
199 202 240 186 189 237 172 176 233 158 162 229 144 150 226 
131 137 222 127 133 221 123 129 220 120 127 219 116 123 218 
112 119 217 103 110 215 97 104 213 102 109 214 110 116 216 
110 117 217 110 116 216 117 124 218 124 130 220 132 137 222 
154 159 228 166 170 231 162 166 230 158 162 229 156 161 229 
154 159 228 153 158 228 151 156 227 150 155 227 148 153 227 
147 152 226 145 150 226 144 149 225 143 148 225 141 147 225 
140 145 224 139 144 224 138 144 224 137 142 224 135 141 223 
135 140 223 133 139 223 132 138 222 143 148 225 153 158 228 
164 168 231 190 193 238 213 215 244 234 235 249 254 254 255 
255 255 255 255 255 255 255 255 255 255 255 255 255 255 255 
255 255 255 255 255 255 255 255 255 255 255 255 255 255 255 
254 254 255 242 243 252 229 231 248 217 219 245 205 207 242 
192 195 238 180 183 235 167 171 232 154 159 228 142 147 225 
138 144 224 135 140 223 132 137 222 128 134 221 126 132 221 
135 141 223 143 148 225 147 152 226 163 167 231 170 174 232 
165 169 231 186 189 237 206 208 242 229 230 248 249 249 253 
249 249 253 247 248 253 245 246 252 243 244 252 241 241 251 
238 239 251 235 236 250 233 234 249 231 232 249 229 230 248 
226 227 247 224 226 247 223 224 246 222 223 246 220 222 246 
218 220 245 217 218 245 216 218 245 214 216 244 213 215 244 
211 213 243 210 212 243 215 217 244 220 222 246 227 228 248 
241 242 251 255 255 255 255 255 255 255 255 255 255 255 255 
255 255 255 255 255 255 255 255 255 255 255 255 255 255 255 
255 255 255 255 255 255 255 255 255 255 255 255 255 255 255 
251 251 254 248 249 253 244 245 252 241 242 251 238 238 250 
235 236 250 231 232 249 227 228 248 224 226 247 217 219 245 
211 213 243 205 207 242 199 201 240 193 196 239 205 208 242 
220 221 246 238 238 250 255 255 255 255 255 255 253 254 255 
253 253 254 253 254 255 253 254 255 255 255 255 255 255 255 
255 255 255 255 255 255 255 255 255 255 255 255 255 255 255 
255 255 255 255 255 255 255 255 255 255 255 255 255 255 255 
255 255 255 255 255 255 255 255 255 255 255 255 255 255 255 
255 255 255 255 255 255 255 255 255 255 255 255 255 255 255 
255 255 255 255 255 255 255 255 255 255 255 255 255 255 255 
255 255 255 255 255 255 255 255 255 255 255 255 255 255 255 
255 255 255 255 255 255 255 255 255 255 255 255 255 255 255 
255 255 255 255 255 255 255 255 255 255 255 255 255 255 255 
255 255 255 255 255 255 255 255 255 255 255 255 255 255 255 
255 255 255 255 255 255 255 255 255 255 255 255 255 255 255 
255 255 255 255 255 255 255 255 255 255 255 255 255 255 255 
255 255 255 255 255 255 255 255 255 255 255 255 255 255 255 
255 255 255 255 255 255 255 255 255 255 255 255 255 255 255 
255 255 255 255 255 255 255 255 255 255 255 255 255 255 255 
255 255 255 255 255 255 255 255 255 255 255 255 255 255 255 
255 255 255 255 255 255 255 255 255 255 255 255 255 255 255 
255 255 255 255 255 255 255 255 255 255 255 255 255 255 255 
255 255 255 255 255 255 255 255 255 255 255 255 255 255 255 
255 255 255 255 255 255 255 255 255 255 255 255 255 255 255 
255 255 255 255 255 255 255 255 255 255 255 255 255 255 255 
255 255 255 255 255 255 255 255 255 255 255 255 255 255 255 
255 255 255 255 255 255 255 255 255 255 255 255 255 255 255 
255 255 255 255 255 255 255 255 255 255 255 255 255 255 255 
255 255 255 255 255 255 255 255 255 255 255 255 255 255 255 
255 255 255 255 255 255 255 255 255 255 255 255 255 255 255 
255 255 255 255 255 255 255 255 255 255 255 255 255 255 255 
255 255 255 255 255 255 255 255 255 255 255 255 255 255 255 
255 255 255 255 255 255 255 255 255 255 255 255 255 255 255 
255 255 255 255 255 255 255 255 255 255 255 255 255 255 255 
255 255 255 255 255 255 255 255 255 255 255 255 255 255 255 
255 255 255 255 255 255 255 255 255 255 255 255 255 255 255 
255 255 255 255 255 255 255 255 255 255 255 255 255 255 255 
255 255 255 255 255 255 255 255 255 255 255 255 255 255 255 
255 255 255 255 255 255 255 255 255 255 255 255 255 255 255 
255 255 255 255 255 255 255 255 255 255 255 255 255 255 255 
255 255 255 255 255 255 255 255 255 255 255 255 255 255 255 
255 255 255 255 255 255 255 255 255 255 255 255 255 255 255 
255 255 255 255 255 255 255 255 255 255 255 255 255 255 255 
255 255 255 255 255 255 255 255 255 255 255 255 255 255 255 
255 255 255 255 255 255 255 255 255 255 255 255 255 255 255 
255 255 255 255 255 255 255 255 255 255 255 255 255 255 255 
255 255 255 255 255 255 255 255 255 255 255 255 255 255 255 
255 255 255 255 255 255 255 255 255 255 255 255 255 255 255 
255 255 255 255 255 255 255 255 255 255 255 255 255 255 255 
255 255 255 255 255 255 255 255 255 255 255 255 255 255 255 
255 255 255 255 255 255 255 255 255 255 255 255 255 255 255 
255 255 255 255 255 255 255 255 255 255 255 255 255 255 255 
255 255 255 255 255 255 255 255 255 255 255 255 255 255 255 
255 255 255 255 255 255 255 255 255 255 255 255 255 255 255 
255 255 255 255 255 255 255 255 255 255 255 255 255 255 255 
255 255 255 255 255 255 255 255 255 255 255 255 255 255 255 
255 255 255 255 255 255 255 255 255 255 255 255 255 255 255 
255 255 255 255 255 255 255 255 255 255 255 255 255 255 255 
255 255 255 255 255 255 255 255 255 255 255 255 255 255 255 
255 255 255 255 255 255 255 255 255 255 255 255 255 255 255 
255 255 255 255 255 255 255 255 255 255 255 255 255 255 255 
255 255 255 255 255 255 255 255 255 255 255 255 255 255 255 
255 255 255 255 255 255 255 255 255 255 255 255 255 255 255 
255 255 255 255 255 255 255 255 255 255 255 255 255 255 255 
255 255 255 255 255 255 255 255 255 255 255 255 255 255 255 
255 255 255 255 255 255 255 255 255 255 255 255 255 255 255 
255 255 255 255 255 255 255 255 255 255 255 255 255 255 255 
255 255 255 255 255 255 255 255 255 255 255 255 255 255 255 
255 255 255 255 255 255 255 255 255 255 255 255 255 255 255 
255 255 255 255 255 255 255 255 255 255 255 255 255 255 255 
255 255 255 255 255 255 255 255 255 255 255 255 255 255 255 
255 255 255 255 255 255 255 255 255 255 255 255 255 255 255 
255 255 255 255 255 255 255 255 255 255 255 255 255 255 255 
255 255 255 255 255 255 255 255 255 255 255 255 255 255 255 
255 255 255 255 255 255 255 255 255 255 255 255 255 255 255 
255 255 255 255 255 255 255 255 255 255 255 255 255 255 255 
255 255 255 255 255 255 255 255 255 255 255 255 255 255 255 
255 255 255 255 255 255 255 255 255 255 255 255 255 255 255 
255 255 255 255 255 255 255 255 255 255 255 255 255 255 255 
255 255 255 255 255 255 255 255 255 255 255 255 255 255 255 
255 255 255 255 255 255 255 255 255 255 255 255 255 255 255 
255 255 255 255 255 255 255 255 255 255 255 255 255 255 255 
255 255 255 255 255 255 255 255 255 255 255 255 255 255 255 
255 255 255 255 255 255 255 255 255 255 255 255 255 255 255 
255 255 255 255 255 255 255 255 255 255 255 255 255 255 255 
255 255 255 255 255 255 255 255 255 255 255 255 255 255 255 
255 255 255 255 255 255 255 255 255 255 255 255 255 255 255 
255 255 255 255 255 255 255 255 255 255 255 255 255 255 255 
255 255 255 255 255 255 255 255 255 255 255 255 255 255 255 
255 255 255 255 255 255 255 255 255 255 255 255 255 255 255 
255 255 255 255 255 255 255 255 255 255 255 255 255 255 255 
255 255 255 255 255 255 255 255 255 255 255 255 255 255 255 
255 255 255 255 255 255 255 255 255 255 255 255 255 255 255 
255 255 255 255 255 255 255 255 255 255 255 255 255 255 255 
255 255 255 255 255 255 255 255 255 255 255 255 255 255 255 
255 255 255 255 255 255 255 255 255 255 255 255 255 255 255 
255 255 255 255 255 255 255 255 255 255 255 255 255 255 255 
255 255 255 255 255 255 255 255 255 255 255 255 255 255 255 
255 255 255 255 255 255 255 255 255 255 255 255 255 255 255 
255 255 255 255 255 255 255 255 255 255 255 255 255 255 255 
255 255 255 255 255 255 255 255 255 255 255 255 255 255 255 
255 255 255 255 255 255 255 255 255 255 255 255 255 255 255 
255 255 255 255 255 255 255 255 255 255 255 255 255 255 255 
255 255 255 255 255 255 255 255 255 255 255 255 255 255 255 
255 255 255 255 255 255 255 255 255 255 255 255 255 255 255 
255 255 255 255 255 255 255 255 255 255 255 255 255 255 255 
255 255 255 255 255 255 255 255 255 255 255 255 255 255 255 
255 255 255 255 255 255 255 255 255 255 255 255 255 255 255 
255 255 255 255 255 255 255 255 255 255 255 255 255 255 255 
255 255 255 255 255 255 255 255 255 255 255 255 255 255 255 
255 255 255 255 255 255 255 255 255 255 255 255 255 255 255 
255 255 255 255 255 255 255 255 255 255 255 255 255 255 255 
255 255 255 255 255 255 255 255 255 255 255 255 255 255 255 
255 255 255 